<svg width="46" height="46" viewBox="0 0 46 46" fill="none" xmlns="http://www.w3.org/2000/svg">
<g clip-path="url(#clip0_6_98)">
<path d="M13.4167 46C6.9115 46 0 43.9837 0 40.25C0 39.721 0.429333 39.2917 0.958333 39.2917C1.48733 39.2917 1.91667 39.721 1.91667 40.25C1.91667 41.8504 6.2905 44.0834 13.4167 44.0834C20.5428 44.0834 24.9167 41.8504 24.9167 40.25C24.9167 39.721 25.346 39.2917 25.875 39.2917C26.404 39.2917 26.8333 39.721 26.8333 40.25C26.8333 43.9837 19.9218 46 13.4167 46Z" fill="#9CC4F3"/>
<path d="M13.4167 40.25C6.9115 40.25 0 38.2337 0 34.5C0 33.971 0.429333 33.5417 0.958333 33.5417C1.48733 33.5417 1.91667 33.971 1.91667 34.5C1.91667 36.1004 6.2905 38.3334 13.4167 38.3334C20.5428 38.3334 24.9167 36.1004 24.9167 34.5C24.9167 33.971 25.346 33.5417 25.875 33.5417C26.404 33.5417 26.8333 33.971 26.8333 34.5C26.8333 38.2337 19.9218 40.25 13.4167 40.25Z" fill="#9CC4F3"/>
<path d="M13.4167 34.5C6.9115 34.5 0 32.4837 0 28.75C0 25.0163 6.9115 23 13.4167 23C19.9218 23 26.8333 25.0163 26.8333 28.75C26.8333 32.4837 19.9218 34.5 13.4167 34.5ZM13.4167 24.9167C6.2905 24.9167 1.91667 27.1496 1.91667 28.75C1.91667 30.3504 6.2905 32.5833 13.4167 32.5833C20.5428 32.5833 24.9167 30.3504 24.9167 28.75C24.9167 27.1496 20.5428 24.9167 13.4167 24.9167Z" fill="#9CC4F3"/>
<path d="M0.958333 41.2084C0.429333 41.2084 0 40.779 0 40.25V28.75C0 28.221 0.429333 27.7917 0.958333 27.7917C1.48733 27.7917 1.91667 28.221 1.91667 28.75V40.25C1.91667 40.779 1.48733 41.2084 0.958333 41.2084Z" fill="#9CC4F3"/>
<path d="M25.875 41.2084C25.346 41.2084 24.9167 40.779 24.9167 40.25V28.75C24.9167 28.221 25.346 27.7917 25.875 27.7917C26.404 27.7917 26.8334 28.221 26.8334 28.75V40.25C26.8334 40.779 26.404 41.2084 25.875 41.2084Z" fill="#9CC4F3"/>
<path d="M32.5834 23C26.0782 23 19.1667 20.9837 19.1667 17.25C19.1667 16.721 19.596 16.2917 20.125 16.2917C20.654 16.2917 21.0834 16.721 21.0834 17.25C21.0834 18.8504 25.4572 21.0834 32.5834 21.0834C39.7095 21.0834 44.0834 18.8504 44.0834 17.25C44.0834 16.721 44.5127 16.2917 45.0417 16.2917C45.5707 16.2917 46 16.721 46 17.25C46 20.9837 39.0885 23 32.5834 23Z" fill="#9CC4F3"/>
<path d="M32.5834 34.5C31.4736 34.5 30.4999 34.4559 29.6068 34.3601C29.0816 34.3045 28.6983 33.833 28.7558 33.3059C28.8133 32.7789 29.2809 32.3955 29.8099 32.4549C30.6322 32.5412 31.5407 32.5834 32.5834 32.5834C39.7095 32.5834 44.0834 30.3504 44.0834 28.75C44.0834 28.221 44.5127 27.7917 45.0417 27.7917C45.5707 27.7917 46 28.221 46 28.75C46 32.4837 39.0885 34.5 32.5834 34.5Z" fill="#9CC4F3"/>
<path d="M32.5834 40.25C31.4736 40.25 30.4999 40.2059 29.6068 40.1101C29.0816 40.0545 28.6983 39.583 28.7558 39.0559C28.8114 38.5289 29.2809 38.1379 29.8099 38.2049C30.6322 38.2912 31.5407 38.3334 32.5834 38.3334C39.7095 38.3334 44.0834 36.1004 44.0834 34.5C44.0834 33.971 44.5127 33.5417 45.0417 33.5417C45.5707 33.5417 46 33.971 46 34.5C46 38.2337 39.0885 40.25 32.5834 40.25Z" fill="#9CC4F3"/>
<path d="M32.5834 28.75C31.4736 28.75 30.4999 28.7059 29.6068 28.6101C29.0816 28.5545 28.6983 28.083 28.7558 27.5559C28.8114 27.0289 29.2809 26.6417 29.8099 26.7049C30.6322 26.7912 31.5407 26.8334 32.5834 26.8334C39.7095 26.8334 44.0834 24.6004 44.0834 23C44.0834 22.471 44.5127 22.0417 45.0417 22.0417C45.5707 22.0417 46 22.471 46 23C46 26.7337 39.0885 28.75 32.5834 28.75Z" fill="#9CC4F3"/>
<path d="M32.5834 17.25C26.0782 17.25 19.1667 15.2337 19.1667 11.5C19.1667 7.76633 26.0782 5.75 32.5834 5.75C39.0885 5.75 46 7.76633 46 11.5C46 15.2337 39.0885 17.25 32.5834 17.25ZM32.5834 7.66667C25.4572 7.66667 21.0834 9.89958 21.0834 11.5C21.0834 13.1004 25.4572 15.3333 32.5834 15.3333C39.7095 15.3333 44.0834 13.1004 44.0834 11.5C44.0834 9.89958 39.7095 7.66667 32.5834 7.66667Z" fill="#9CC4F3"/>
<path d="M20.125 18.2084C19.596 18.2084 19.1667 17.779 19.1667 17.25V11.5C19.1667 10.971 19.596 10.5417 20.125 10.5417C20.654 10.5417 21.0834 10.971 21.0834 11.5V17.25C21.0834 17.779 20.654 18.2084 20.125 18.2084Z" fill="#9CC4F3"/>
<path d="M45.0416 35.4584C44.5126 35.4584 44.0833 35.029 44.0833 34.5V11.5C44.0833 10.971 44.5126 10.5417 45.0416 10.5417C45.5706 10.5417 46 10.971 46 11.5V34.5C46 35.029 45.5706 35.4584 45.0416 35.4584Z" fill="#9CC4F3"/>
</g>
<defs>
<clipPath id="clip0_6_98">
<rect width="46" height="46" fill="white"/>
</clipPath>
</defs>
</svg>
