<svg width="46" height="46" viewBox="0 0 46 46" fill="none" xmlns="http://www.w3.org/2000/svg">
<g clip-path="url(#clip0_6_200)">
<path d="M43.8796 44.2031H41.9091V15.5911C41.9091 14.2593 40.8255 13.1759 39.4939 13.1759H35.0894C33.7576 13.1759 32.6742 14.2594 32.6742 15.5911V44.2031H27.6706V28.5545C27.6706 27.2228 26.5872 26.1394 25.2554 26.1394H20.8509C19.5192 26.1394 18.4358 27.2229 18.4358 28.5545V44.2031H13.4322V36.0988C13.4322 34.7671 12.3487 33.6836 11.017 33.6836H6.61241C5.28066 33.6836 4.19724 34.7672 4.19724 36.0988V44.2031H2.12041C1.6242 44.2031 1.22197 44.6053 1.22197 45.1015C1.22197 45.5977 1.6242 46 2.12041 46H43.8796C44.3758 46 44.778 45.5977 44.778 45.1015C44.778 44.6053 44.3758 44.2031 43.8796 44.2031ZM11.6351 44.2031H5.99402V36.0988C5.99402 35.7579 6.27137 35.4805 6.61233 35.4805H11.0168C11.3578 35.4805 11.6351 35.7579 11.6351 36.0988V44.2031ZM25.8737 44.2031H20.2325V28.5545C20.2325 28.2136 20.5099 27.9362 20.8509 27.9362H25.2554C25.5962 27.9362 25.8737 28.2136 25.8737 28.5545V44.2031ZM40.1122 44.2031H34.4711V15.5911C34.4711 15.2501 34.7484 14.9728 35.0894 14.9728H39.4939C39.8348 14.9728 40.1122 15.2501 40.1122 15.5911V44.2031Z" fill="white"/>
<path d="M41.9069 0.944797C41.9195 0.699613 41.8332 0.450297 41.646 0.263063C41.4588 0.0758281 41.2094 -0.0105117 40.9643 0.00215625C40.9498 0.00152734 40.9355 0 40.9208 0H35.4852C34.989 0 34.5868 0.402231 34.5868 0.898438C34.5868 1.39464 34.989 1.79688 35.4852 1.79688H38.8415L29.9598 10.6786L26.6105 7.32927C26.442 7.16082 26.2134 7.06612 25.9752 7.06612C25.7369 7.06612 25.5084 7.16082 25.3399 7.32927L9.18877 23.4805C8.83793 23.8313 8.83793 24.4002 9.18877 24.7511C9.36424 24.9264 9.59415 25.0141 9.82406 25.0141C10.054 25.0141 10.284 24.9264 10.4593 24.751L25.9752 9.23504L29.3246 12.5844C29.6754 12.9353 30.2443 12.9353 30.5952 12.5844L40.1122 3.06754V6.10515C40.1122 6.60136 40.5144 7.00359 41.0106 7.00359C41.5068 7.00359 41.9091 6.60136 41.9091 6.10515V0.988281C41.9091 0.973637 41.9075 0.959352 41.9069 0.944797Z" fill="white"/>
<path d="M6.79578 28.1489C7.29197 28.1489 7.69421 27.7467 7.69421 27.2505C7.69421 26.7543 7.29197 26.3521 6.79578 26.3521C6.29958 26.3521 5.89734 26.7543 5.89734 27.2505C5.89734 27.7467 6.29958 28.1489 6.79578 28.1489Z" fill="white"/>
</g>
<defs>
<clipPath id="clip0_6_200">
<rect width="46" height="46" fill="white"/>
</clipPath>
</defs>
</svg>
