<svg width="46" height="46" viewBox="0 0 46 46" fill="none" xmlns="http://www.w3.org/2000/svg">
<path d="M40.7976 23.7119H22.2881V5.20238C22.2881 4.80923 21.9693 4.49048 21.5762 4.49048C10.5673 4.49048 1.64285 13.4149 1.64285 24.4238C1.64285 35.4327 10.5673 44.3571 21.5762 44.3571C32.5851 44.3571 41.5095 35.4327 41.5095 24.4238C41.5095 24.0307 41.1908 23.7119 40.7976 23.7119ZM21.5762 42.9333C11.3537 42.9357 3.0647 34.6508 3.06221 24.4283C3.0599 14.4793 10.9226 6.30806 20.8643 5.92781V24.4238C20.8643 24.817 21.183 25.1357 21.5762 25.1357H40.0722C39.6777 35.0686 31.5169 42.9213 21.5762 42.9333Z" fill="white" stroke="white" stroke-width="0.3"/>
<path d="M24.4238 1.64282C24.0307 1.64282 23.7119 1.96158 23.7119 2.35473V21.5762C23.7119 21.9693 24.0307 22.2881 24.4238 22.2881H43.6452C44.0384 22.2881 44.3571 21.9693 44.3571 21.5762C44.3446 10.5725 35.4274 1.65537 24.4238 1.64282ZM25.1357 20.8643V3.08016C34.7939 3.4645 42.5355 11.206 42.9198 20.8643H25.1357Z" fill="#E30500" stroke="#E30500" stroke-width="0.3"/>
</svg>
